<svg xmlns="http://www.w3.org/2000/svg" width="760" height="320">
<rect width="100%" height="100%" fill="#fbf9f3"/>
<text x="24" y="30" font-size="20" font-family="Segoe UI, Arial" font-weight="700" fill="#102a43">White Baseline Stage Accuracy</text>
<text x="24" y="52" font-size="12" font-family="Segoe UI, Arial" fill="#486581">Top-1 and Top-3 accuracy by cumulative feature stage</text>
<line x1="110" y1="70.0" x2="730" y2="70.0" stroke="#d9e2ec" stroke-width="1"/>
<text x="98" y="74.0" text-anchor="end" font-size="11" font-family="Segoe UI, Arial" fill="#486581">1.0</text>
<line x1="110" y1="114.0" x2="730" y2="114.0" stroke="#d9e2ec" stroke-width="1"/>
<text x="98" y="118.0" text-anchor="end" font-size="11" font-family="Segoe UI, Arial" fill="#486581">0.8</text>
<line x1="110" y1="158.0" x2="730" y2="158.0" stroke="#d9e2ec" stroke-width="1"/>
<text x="98" y="162.0" text-anchor="end" font-size="11" font-family="Segoe UI, Arial" fill="#486581">0.6</text>
<line x1="110" y1="202.0" x2="730" y2="202.0" stroke="#d9e2ec" stroke-width="1"/>
<text x="98" y="206.0" text-anchor="end" font-size="11" font-family="Segoe UI, Arial" fill="#486581">0.4</text>
<line x1="110" y1="246.0" x2="730" y2="246.0" stroke="#d9e2ec" stroke-width="1"/>
<text x="98" y="250.0" text-anchor="end" font-size="11" font-family="Segoe UI, Arial" fill="#486581">0.2</text>
<line x1="110" y1="290.0" x2="730" y2="290.0" stroke="#d9e2ec" stroke-width="1"/>
<text x="98" y="294.0" text-anchor="end" font-size="11" font-family="Segoe UI, Arial" fill="#486581">0.0</text>
<rect x="120" y="175.68800000000002" width="45.5" height="114.31199999999998" fill="#d1495b" rx="3"/>
<rect x="183.5" y="105.57399999999998" width="45.5" height="184.42600000000002" fill="#2d6a4f" rx="3"/>
<text x="142.75" y="169.68800000000002" text-anchor="middle" font-size="10" font-family="Segoe UI, Arial" fill="#7b1e2b">0.520</text>
<text x="206.25" y="99.57399999999998" text-anchor="middle" font-size="10" font-family="Segoe UI, Arial" fill="#1b4332">0.838</text>
<text x="174.5" y="296" text-anchor="middle" font-size="10" font-family="Segoe UI, Arial" fill="#102a43">Count</text>
<rect x="281.0" y="181.78199999999998" width="45.5" height="108.218" fill="#d1495b" rx="3"/>
<rect x="344.5" y="106.58600000000001" width="45.5" height="183.414" fill="#2d6a4f" rx="3"/>
<text x="303.75" y="175.78199999999998" text-anchor="middle" font-size="10" font-family="Segoe UI, Arial" fill="#7b1e2b">0.492</text>
<text x="367.25" y="100.58600000000001" text-anchor="middle" font-size="10" font-family="Segoe UI, Arial" fill="#1b4332">0.834</text>
<text x="335.5" y="296" text-anchor="middle" font-size="10" font-family="Segoe UI, Arial" fill="#102a43">Count+Stance</text>
<rect x="442.0" y="184.312" width="45.5" height="105.688" fill="#d1495b" rx="3"/>
<rect x="505.5" y="115.738" width="45.5" height="174.262" fill="#2d6a4f" rx="3"/>
<text x="464.75" y="178.312" text-anchor="middle" font-size="10" font-family="Segoe UI, Arial" fill="#7b1e2b">0.480</text>
<text x="528.25" y="109.738" text-anchor="middle" font-size="10" font-family="Segoe UI, Arial" fill="#1b4332">0.792</text>
<text x="496.5" y="296" text-anchor="middle" font-size="10" font-family="Segoe UI, Arial" fill="#102a43">+PrevPitch</text>
<rect x="603.0" y="191.44" width="45.5" height="98.56" fill="#d1495b" rx="3"/>
<rect x="666.5" y="113.186" width="45.5" height="176.814" fill="#2d6a4f" rx="3"/>
<text x="625.75" y="185.44" text-anchor="middle" font-size="10" font-family="Segoe UI, Arial" fill="#7b1e2b">0.448</text>
<text x="689.25" y="107.186" text-anchor="middle" font-size="10" font-family="Segoe UI, Arial" fill="#1b4332">0.804</text>
<text x="657.5" y="296" text-anchor="middle" font-size="10" font-family="Segoe UI, Arial" fill="#102a43">+Catcher</text>
<rect x="560" y="20" width="12" height="12" fill="#d1495b" rx="2"/>
<text x="578" y="30" font-size="12" font-family="Segoe UI, Arial" fill="#102a43">Top-1</text>
<rect x="630" y="20" width="12" height="12" fill="#2d6a4f" rx="2"/>
<text x="648" y="30" font-size="12" font-family="Segoe UI, Arial" fill="#102a43">Top-3</text>
</svg>